<svg width="21" height="20" viewBox="0 0 21 20" fill="none" xmlns="http://www.w3.org/2000/svg">
<path d="M5.24992 10.8333H1.91659C1.69557 10.8333 1.48361 10.9211 1.32733 11.0773C1.17105 11.2336 1.08325 11.4456 1.08325 11.6666V18.3333C1.08325 18.5543 1.17105 18.7662 1.32733 18.9225C1.48361 19.0788 1.69557 19.1666 1.91659 19.1666H5.24992C5.47093 19.1666 5.68289 19.0788 5.83917 18.9225C5.99545 18.7662 6.08325 18.5543 6.08325 18.3333V11.6666C6.08325 11.4456 5.99545 11.2336 5.83917 11.0773C5.68289 10.9211 5.47093 10.8333 5.24992 10.8333ZM4.41659 17.4999H2.74992V12.4999H4.41659V17.4999ZM18.5833 7.49992H15.2499C15.0289 7.49992 14.8169 7.58772 14.6607 7.744C14.5044 7.90028 14.4166 8.11224 14.4166 8.33325V18.3333C14.4166 18.5543 14.5044 18.7662 14.6607 18.9225C14.8169 19.0788 15.0289 19.1666 15.2499 19.1666H18.5833C18.8043 19.1666 19.0162 19.0788 19.1725 18.9225C19.3288 18.7662 19.4166 18.5543 19.4166 18.3333V8.33325C19.4166 8.11224 19.3288 7.90028 19.1725 7.744C19.0162 7.58772 18.8043 7.49992 18.5833 7.49992ZM17.7499 17.4999H16.0833V9.16659H17.7499V17.4999ZM11.9166 0.833252H8.58325C8.36224 0.833252 8.15028 0.921049 7.994 1.07733C7.83772 1.23361 7.74992 1.44557 7.74992 1.66659V18.3333C7.74992 18.5543 7.83772 18.7662 7.994 18.9225C8.15028 19.0788 8.36224 19.1666 8.58325 19.1666H11.9166C12.1376 19.1666 12.3496 19.0788 12.5058 18.9225C12.6621 18.7662 12.7499 18.5543 12.7499 18.3333V1.66659C12.7499 1.44557 12.6621 1.23361 12.5058 1.07733C12.3496 0.921049 12.1376 0.833252 11.9166 0.833252ZM11.0833 17.4999H9.41659V2.49992H11.0833V17.4999Z" fill="#0A131F"/>
</svg>
