<svg width="21" height="20" viewBox="0 0 21 20" fill="none" xmlns="http://www.w3.org/2000/svg">
<g clip-path="url(#clip0_67_1080)">
<path d="M3.82692 0C2.13077 0 0.75 1.38077 0.75 3.07692V16.9231C0.75 18.6192 2.13077 20 3.82692 20H13.8269C14.6446 20 15.78 18.8192 17.0962 17.4762C17.2808 17.2885 17.4577 17.1123 17.6492 16.9231C17.8385 16.7323 18.0385 16.5308 18.2262 16.3462C19.57 15.0292 20.75 13.8946 20.75 13.0769V3.07692C20.75 1.38077 19.3692 0 17.6731 0H3.82692ZM3.82692 1.53846H17.6731C18.0811 1.53846 18.4724 1.70055 18.7609 1.98907C19.0495 2.27758 19.2115 2.6689 19.2115 3.07692V13.0769C19.2115 13.8423 18.4408 13.8462 17.6731 13.8462H15.3654C14.9415 13.8462 14.5962 14.1915 14.5962 14.6154V16.9715C14.5962 17.6538 14.5977 18.32 14.0431 18.4615H3.82692C3.4189 18.4615 3.02758 18.2995 2.73907 18.0109C2.45055 17.7224 2.28846 17.3311 2.28846 16.9231V3.07692C2.28846 2.6689 2.45055 2.27758 2.73907 1.98907C3.02758 1.70055 3.4189 1.53846 3.82692 1.53846ZM5.99077 6.15385C5.78676 6.17292 5.59868 6.27226 5.46791 6.43001C5.33714 6.58775 5.27439 6.79099 5.29346 6.995C5.31254 7.19901 5.41187 7.38709 5.56962 7.51786C5.72737 7.64863 5.9306 7.71138 6.13462 7.69231H15.3654C15.5694 7.69231 15.7651 7.61126 15.9093 7.46701C16.0536 7.32275 16.1346 7.12709 16.1346 6.92308C16.1346 6.71906 16.0536 6.52341 15.9093 6.37915C15.7651 6.23489 15.5694 6.15385 15.3654 6.15385H6.13462C6.11053 6.15271 6.0864 6.15271 6.06231 6.15385C6.03847 6.15274 6.0146 6.15274 5.99077 6.15385ZM5.99077 10C5.88975 10.0094 5.79158 10.0387 5.70187 10.0861C5.61216 10.1335 5.53266 10.1981 5.46791 10.2762C5.33714 10.4339 5.27439 10.6371 5.29346 10.8412C5.31254 11.0452 5.41187 11.2332 5.56962 11.364C5.72737 11.4948 5.9306 11.5575 6.13462 11.5385H13.8269C14.0309 11.5385 14.2266 11.4574 14.3709 11.3132C14.5151 11.1689 14.5962 10.9732 14.5962 10.7692C14.5962 10.5652 14.5151 10.3696 14.3709 10.2253C14.2266 10.081 14.0309 10 13.8269 10H6.13462C6.11053 9.99887 6.0864 9.99887 6.06231 10C6.03847 9.99889 6.0146 9.99889 5.99077 10Z" fill="#0A131F"/>
</g>
<defs>
<clipPath id="clip0_67_1080">
<rect width="20" height="20" fill="white" transform="translate(0.75)"/>
</clipPath>
</defs>
</svg>
